# xmcd
#
# Track frame offsets: 
#        150
#        20342
#        49626
#        78776
#        91504
#        103067
#        127282
#        158387
#        194512
#        214565
#
# Disc length: 3101 seconds
#
# Revision: 0
# Processed by: cddbd v1.5.2PL0 Copyright (c) Steve Scherf et al.
# Submitted via: ExactAudioCopy v0.99pb3
#
DISCID=720c1b0a
DTITLE=Cookie McGee - One Way Ticket
DYEAR=2010
DGENRE=Blues
TTITLE0=Cookin' With Cookie
TTITLE1=Back Playing The Blues
TTITLE2=I Can't Take It
TTITLE3=The Right Place
TTITLE4=One Way Ticket
TTITLE5=I'm Tore Down - Take 3
TTITLE6=Woke Up This Morning
TTITLE7=On Thing Or Another
TTITLE8=Palace Of The King
TTITLE9=I'm Tore Down - Take 2
EXTD=
EXTT0=
EXTT1=
EXTT2=
EXTT3=
EXTT4=
EXTT5=
EXTT6=
EXTT7=
EXTT8=
EXTT9=
PLAYORDER=
